<svg width="20" height="20" viewBox="0 0 20 20" fill="none" xmlns="http://www.w3.org/2000/svg">
<path fill-rule="evenodd" clip-rule="evenodd" d="M4.50006 15.6251L4.50006 8.2017C4.78391 8.31363 5.09316 8.37512 5.41678 8.37512C5.74036 8.37512 6.04958 8.31365 6.33339 8.20174L6.33339 15.6251C6.33339 16.1313 5.92299 16.5417 5.41673 16.5417C4.91047 16.5417 4.50006 16.1313 4.50006 15.6251ZM5.41678 3.37512C5.09316 3.37512 4.78391 3.43661 4.50006 3.54854L4.50006 2.70841C4.50006 2.20215 4.91047 1.79175 5.41673 1.79175C5.92299 1.79175 6.33339 2.20215 6.33339 2.70841V3.5485C6.04958 3.4366 5.74036 3.37512 5.41678 3.37512ZM13.6668 15.6252L13.6668 8.20174C13.9506 8.31365 14.2598 8.37512 14.5834 8.37512C14.907 8.37512 15.2163 8.31363 15.5001 8.2017V15.6252C15.5001 16.1314 15.0897 16.5418 14.5835 16.5418C14.0772 16.5418 13.6668 16.1314 13.6668 15.6252ZM14.5834 3.37512C14.2598 3.37512 13.9506 3.4366 13.6668 3.5485V2.70852C13.6668 2.20226 14.0772 1.79185 14.5835 1.79185C15.0897 1.79185 15.5001 2.20226 15.5001 2.70852V3.54854C15.2163 3.43661 14.907 3.37512 14.5834 3.37512ZM10.9166 11.7983L10.9166 4.37491C10.9166 3.86865 10.5062 3.45825 9.99989 3.45825C9.49363 3.45825 9.08323 3.86865 9.08323 4.37491L9.08323 11.7983C9.36707 11.6864 9.67633 11.6249 9.99994 11.6249C10.3235 11.6249 10.6327 11.6863 10.9166 11.7983ZM10.9166 16.4515C10.6327 16.5634 10.3235 16.6249 9.99994 16.6249C9.67633 16.6249 9.36707 16.5634 9.08323 16.4515V17.2916C9.08323 17.7978 9.49363 18.2082 9.99989 18.2082C10.5062 18.2082 10.9166 17.7978 10.9166 17.2916V16.4515ZM5.41666 6.41677C5.1175 6.41677 4.87499 6.17426 4.87499 5.8751C4.87499 5.57595 5.1175 5.33343 5.41666 5.33343C5.71581 5.33343 5.95832 5.57595 5.95832 5.8751C5.95832 6.17426 5.71581 6.41677 5.41666 6.41677ZM3.54166 5.8751C3.54166 4.83957 4.38112 4.0001 5.41666 4.0001C6.45219 4.0001 7.29166 4.83957 7.29166 5.8751C7.29166 6.91064 6.45219 7.7501 5.41666 7.7501C4.38112 7.7501 3.54166 6.91064 3.54166 5.8751ZM14.0416 5.8751C14.0416 6.17426 14.2841 6.41677 14.5832 6.41677C14.8824 6.41677 15.1249 6.17426 15.1249 5.8751C15.1249 5.57595 14.8824 5.33343 14.5832 5.33343C14.2841 5.33343 14.0416 5.57595 14.0416 5.8751ZM14.5832 4.0001C13.5477 4.0001 12.7082 4.83957 12.7082 5.8751C12.7082 6.91064 13.5477 7.7501 14.5832 7.7501C15.6188 7.7501 16.4582 6.91064 16.4582 5.8751C16.4582 4.83957 15.6188 4.0001 14.5832 4.0001ZM9.99991 13.5833C10.2991 13.5833 10.5416 13.8258 10.5416 14.125C10.5416 14.4241 10.2991 14.6667 9.99991 14.6667C9.70076 14.6667 9.45825 14.4241 9.45825 14.125C9.45825 13.8258 9.70076 13.5833 9.99991 13.5833ZM11.8749 14.125C11.8749 15.1605 11.0354 16 9.99991 16C8.96438 16 8.12491 15.1605 8.12491 14.125C8.12491 13.0895 8.96438 12.25 9.99991 12.25C11.0354 12.25 11.8749 13.0895 11.8749 14.125Z" fill="#272727"/>
</svg>
