<svg width="24" height="24" viewBox="0 0 24 24" fill="none" xmlns="http://www.w3.org/2000/svg">
<path fill-rule="evenodd" clip-rule="evenodd" d="M9.78402 5.47218C9.74285 5.47222 9.70183 5.47544 9.66135 5.48174C9.57933 5.49437 9.50142 5.51946 9.42961 5.55501C9.40571 5.56679 9.38235 5.57979 9.35963 5.59398L5.93459 7.62146C5.55438 7.84652 5.42854 8.33723 5.65352 8.71749C5.8785 9.09775 6.3691 9.22356 6.7493 8.99849L8.98407 7.67561L8.98407 12.2724C8.98407 12.7142 9.34225 13.0724 9.78407 13.0724C10.2259 13.0724 10.5841 12.7142 10.5841 12.2724V7.67561L12.8188 8.9985C13.199 9.22356 13.6896 9.09775 13.9146 8.71749C14.1396 8.33723 14.0138 7.84652 13.6336 7.62146L10.2085 5.59398C10.1858 5.57977 10.1624 5.56676 10.1385 5.55497C10.103 5.5374 10.066 5.52239 10.0277 5.51018C9.94781 5.48453 9.8656 5.47211 9.78402 5.47218ZM14.2157 18.5277C14.2569 18.5276 14.2979 18.5244 14.3384 18.5181C14.4205 18.5055 14.4984 18.4804 14.5702 18.4448C14.5941 18.4331 14.6174 18.4201 14.6402 18.4059L18.0652 16.3784C18.4454 16.1533 18.5712 15.6626 18.3463 15.2824C18.1213 14.9021 17.6307 14.7763 17.2505 15.0014L15.0157 16.3242V11.7275C15.0157 11.2856 14.6575 10.9275 14.2157 10.9275C13.7739 10.9275 13.4157 11.2856 13.4157 11.7275V16.3242L11.1809 15.0014C10.8007 14.7763 10.3101 14.9021 10.0852 15.2824C9.86018 15.6626 9.98602 16.1533 10.3662 16.3784L13.7913 18.4059C13.814 18.4201 13.8374 18.4331 13.8613 18.4449C13.8968 18.4624 13.9338 18.4775 13.972 18.4897C14.052 18.5153 14.1342 18.5277 14.2157 18.5277Z" fill="#272727"/>
</svg>
