<svg width="24" height="25" viewBox="0 0 24 25" fill="none" xmlns="http://www.w3.org/2000/svg">
<g clip-path="url(#clip0_29_769)">
<path fill-rule="evenodd" clip-rule="evenodd" d="M10.007 14.314C7.90445 14.314 6.2 12.6095 6.2 10.507C6.2 8.40445 7.90445 6.7 10.007 6.7C12.1095 6.7 13.814 8.40445 13.814 10.507C13.814 12.6095 12.1095 14.314 10.007 14.314ZM4 10.507C4 7.18942 6.68942 4.5 10.007 4.5C13.3246 4.5 16.014 7.18942 16.014 10.507C16.014 11.7683 15.6252 12.9389 14.961 13.9053L18.6785 17.6228C19.1081 18.0524 19.1081 18.7489 18.6785 19.1784C18.2489 19.608 17.5524 19.608 17.1228 19.1784L13.4053 15.461C12.4389 16.1252 11.2683 16.514 10.007 16.514C6.68942 16.514 4 13.8245 4 10.507Z" fill="white"/>
</g>
<defs>
<clipPath id="clip0_29_769">
<rect width="24" height="24" fill="white" transform="translate(0 0.5)"/>
</clipPath>
</defs>
</svg>
